<svg width="72" height="24" xmlns="http://www.w3.org/2000/svg"><g fill="none" fill-rule="evenodd"><path d="M0 0h72v24H0z"/><path d="M11.438 4.49c3.039 0 5.152 1.844 5.152 4.564 0 1.624-.748 2.897-1.937 3.511 0 0 2.73.79 2.774 4.213 0 3.467-2.158 5.222-6.297 5.222H2.852a.347.347 0 01-.352-.351V4.84c0-.219.176-.35.352-.35zm17.701 0c3.038 0 5.152 1.844 5.152 4.564 0 1.624-.749 2.897-1.938 3.511 0 0 2.774.79 2.774 4.213 0 3.467-2.157 5.222-6.296 5.222h-8.278a.347.347 0 01-.352-.351V4.84c0-.219.176-.35.352-.35zm9.159.044a.37.37 0 01.308.176l5.768 10.927c.132.22.484.22.616 0L50.76 4.71c.044-.132.176-.176.264-.176h2.774c.176 0 .308.176.22.351l-9.07 16.94c-.089.219-.44.219-.573 0l-9.07-16.94c-.089-.131.044-.35.22-.35zm21.531-2.37c.088-.219.44-.219.572 0l9.071 16.94c.088.131-.044.35-.22.35h-2.774a.37.37 0 01-.308-.175L60.4 8.352c-.132-.22-.484-.22-.616 0L54.017 19.28c-.044.132-.176.176-.264.176h-2.774c-.176 0-.308-.176-.22-.351zM10.91 14.102H5.714a.347.347 0 00-.352.351v4.652c0 .22.176.35.352.35h5.196c2.51 0 3.567-.79 3.567-2.72 0-1.93-1.101-2.633-3.567-2.633zm17.745 0h-5.196a.347.347 0 00-.352.351v4.652c0 .22.176.35.352.35h5.196c2.465 0 3.566-.79 3.566-2.72 0-1.93-1.1-2.633-3.566-2.633zM10.866 7.036H5.714c-.176 0-.308.175-.308.307v3.905c0 .22.176.352.352.352h5.108c1.893 0 2.862-.79 2.862-2.282s-.969-2.282-2.862-2.282zm17.7 0H23.46c-.176 0-.352.175-.352.307v3.905c0 .22.176.352.352.352h5.108c1.893 0 2.862-.79 2.862-2.282s-.969-2.282-2.862-2.282z" fill="#FFF" fill-rule="nonzero"/></g></svg>